# xmcd
#
# Track frame offsets:
#	150
#	17093
#	34551
#	58770
#	88373
#	165226
#	202449
#	241569
#	255559
#	278205
#
# Disc length: 3974 seconds
#
# Revision: 0
# Processed by: cddbd v1.5.2PL0 Copyright (c) Steve Scherf et al.
# Submitted via: EasyCDDAExtractor 16.1.0.1
#
DISCID=830f840a
DTITLE=Wentus Blues Band and Dick Heckstall-Smith  - Man of Stone
DYEAR=2015
DGENRE=Blues
TTITLE0=Key To Love
TTITLE1=Missing You
TTITLE2=You Got Me (Where You Want Me)
TTITLE3=Suspicious - Part 2
TTITLE4=Woza Nasu
TTITLE5=Man of Stone
TTITLE6=Have You Heard
TTITLE7=Pretty Thing
TTITLE8=Before You Accuse Me
TTITLE9=Looking Back
EXTD=
EXTT0=
EXTT1=
EXTT2=
EXTT3=
EXTT4=
EXTT5=
EXTT6=
EXTT7=
EXTT8=
EXTT9=
PLAYORDER=
